<svg width="32" height="32" viewBox="0 0 32 32" fill="none" xmlns="http://www.w3.org/2000/svg">
<path d="M0 16C0 7.16344 7.16344 0 16 0C24.8366 0 32 7.16344 32 16C32 24.8366 24.8366 32 16 32C7.16344 32 0 24.8366 0 16Z" fill="#EFEEFC"/>
<path d="M19.6223 18.7301C20.1248 18.4001 20.7848 18.7601 20.7848 19.3601V20.3276C20.7848 21.2801 20.0423 22.3001 19.1498 22.6001L16.7573 23.3951C16.3373 23.5376 15.6548 23.5376 15.2423 23.3951L12.8498 22.6001C11.9498 22.3001 11.2148 21.2801 11.2148 20.3276V19.3526C11.2148 18.7601 11.8748 18.4001 12.3698 18.7226L13.9148 19.7276C14.5073 20.1251 15.2573 20.3201 16.0073 20.3201C16.7573 20.3201 17.5073 20.1251 18.0998 19.7276L19.6223 18.7301Z" fill="#9D9AD2"/>
<path d="M21.9846 11.8449L17.4921 8.89742C16.6821 8.36492 15.3471 8.36492 14.5371 8.89742L10.0221 11.8449C8.57465 12.7824 8.57465 14.9049 10.0221 15.8499L11.2221 16.6299L14.5371 18.7899C15.3471 19.3224 16.6821 19.3224 17.4921 18.7899L20.7846 16.6299L21.8121 15.9549V18.2499C21.8121 18.5574 22.0671 18.8124 22.3746 18.8124C22.6821 18.8124 22.9371 18.5574 22.9371 18.2499V14.5599C23.2371 13.5924 22.9296 12.4674 21.9846 11.8449Z" fill="#9D9AD2"/>
</svg>
