<svg width="95" height="60" viewBox="0 0 95 60" fill="none" xmlns="http://www.w3.org/2000/svg">
<path d="M2.932 38.112V42.585H5.2315V38.112H2.932ZM1.861 43.446V37.251H6.3025V43.446H1.861ZM10.3555 40.0335V40.926H8.875V45.819H7.7935V36.327H8.875V40.0335H10.3555ZM15.8977 39.9915V36.5475H16.9057V45.3465H15.8977V40.8735H14.3122C13.7872 42.018 12.8947 43.047 11.4142 43.887L10.8052 43.131C12.1387 42.375 12.9577 41.493 13.4092 40.4535L10.9732 40.716L10.8262 39.7815L13.7032 39.6135C13.8082 39.183 13.8817 38.7525 13.9132 38.2905H11.2882V37.419H14.9527C14.9527 38.322 14.8687 39.183 14.6377 39.9915H15.8977ZM17.8612 36.3165H18.9007V45.8085H17.8612V36.3165ZM27.8659 36.3375V42.144H26.7844V36.3375H27.8659ZM25.8289 40.464L25.9339 41.325C24.5794 41.5455 23.4139 41.577 21.3769 41.577H20.5894V36.999H25.1254V37.8705H21.6604V38.847H24.8524V39.6975H21.6604V40.716C23.4874 40.716 24.5689 40.674 25.8289 40.464ZM24.7054 44.9685C26.0494 44.9685 26.8369 44.643 26.8369 44.0445C26.8369 43.446 26.0494 43.1205 24.7054 43.1205C23.3509 43.1205 22.5739 43.446 22.5739 44.0445C22.5739 44.643 23.3509 44.9685 24.7054 44.9685ZM24.7054 42.2805C26.7004 42.2805 27.9184 42.9315 27.9184 44.0445C27.9184 45.1575 26.7004 45.8085 24.7054 45.8085C22.7104 45.8085 21.4924 45.1575 21.4924 44.0445C21.4924 42.9315 22.7104 42.2805 24.7054 42.2805ZM32.8095 38.1645V39.0675C32.8095 40.6425 33.786 42.2805 35.2665 42.9105L34.668 43.761C33.5655 43.278 32.715 42.249 32.274 41.0205C31.854 42.3435 31.0035 43.467 29.8905 44.0025L29.271 43.1415C30.741 42.459 31.7175 40.695 31.7175 39.0675V38.1645H29.607V37.272H34.92V38.1645H32.8095ZM36.0225 36.327H37.1145V45.8085H36.0225V36.327ZM44.3262 40.632L43.7907 41.4825C42.6987 41.1045 41.9112 40.359 41.4912 39.414C41.0607 40.443 40.2522 41.262 39.1287 41.6505L38.5932 40.8C40.0842 40.2855 40.9242 39.0045 40.9242 37.6815V36.7575H42.0267V37.6815C42.0267 38.9625 42.8667 40.149 44.3262 40.632ZM39.9897 43.3305V42.459H46.3842V45.8085H45.3027V43.3305H39.9897ZM45.3027 36.3165H46.3842V42.0075H45.3027V36.3165ZM52.9239 38.7105H54.6039V36.327H55.6854V41.976H54.6039V39.5925H52.9239V38.7105ZM53.4699 40.821L52.9344 41.6715C51.8844 41.304 51.1284 40.5585 50.7294 39.645C50.3094 40.6845 49.5114 41.5245 48.3879 41.9235L47.8314 41.0625C49.3014 40.5375 50.1519 39.2775 50.1519 37.9755V37.839H48.1464V36.9675H53.2179V37.839H51.2439V37.965C51.2439 39.1515 52.0524 40.3275 53.4699 40.821ZM52.5354 44.979C53.8689 44.979 54.6459 44.643 54.6459 44.0235C54.6459 43.404 53.8689 43.068 52.5354 43.068C51.1809 43.068 50.4144 43.404 50.4144 44.0235C50.4144 44.643 51.1809 44.979 52.5354 44.979ZM52.5354 42.228C54.5094 42.228 55.7274 42.9 55.7274 44.0235C55.7274 45.1575 54.5094 45.819 52.5354 45.819C50.5509 45.819 49.3329 45.1575 49.3329 44.0235C49.3329 42.9 50.5509 42.228 52.5354 42.228ZM59.1276 39.4245V40.9785H63.6216V39.4245H59.1276ZM61.9101 43.761H65.6796V44.6535H57.0906V43.761H60.8286V41.85H58.0566V36.957H59.1276V38.553H63.6216V36.957H64.6926V41.85H61.9101V43.761ZM69.8463 37.1145V38.6685C69.8463 40.4115 70.8123 42.1545 72.3033 42.8265L71.6733 43.6875C70.5813 43.173 69.7518 42.123 69.3213 40.842C68.8908 42.2175 68.0508 43.341 66.9063 43.8975L66.2658 42.9945C67.7778 42.312 68.7648 40.4955 68.7648 38.6685V37.1145H69.8463ZM73.0593 36.3165H74.1513V45.8295H73.0593V36.3165ZM83.8304 40.9575L83.3579 41.85C81.8144 41.535 80.4809 40.548 79.8614 39.246C79.2419 40.548 77.9084 41.535 76.3649 41.85L75.9029 40.9575C77.7719 40.611 79.2944 39.1515 79.2944 37.65V36.936H80.4389V37.65C80.4389 39.162 81.9614 40.6215 83.8304 40.9575ZM75.6089 43.698H84.1979V44.5905H75.6089V43.698ZM90.0341 41.934V39.5295H88.9106V38.658H90.0341V36.474H91.0421V41.934H90.0341ZM89.2361 40.443L89.3411 41.304C88.2596 41.5035 87.3566 41.535 85.8866 41.535H85.2671V36.915H88.8371V37.7865H86.3066V38.7735H88.4906V39.603H86.3066V40.674C87.5036 40.6635 88.3016 40.611 89.2361 40.443ZM87.6506 43.2885V44.832H91.8401V43.2885H87.6506ZM86.5796 45.693V42.4275H92.8901V45.693H86.5796ZM91.8611 36.3165H92.8901V42.018H91.8611V36.3165ZM5.7985 57.979C7.1845 57.979 7.972 57.685 7.972 57.1075C7.972 56.5405 7.1845 56.236 5.7985 56.236C4.4125 56.236 3.6355 56.5405 3.6355 57.1075C3.6355 57.685 4.4125 57.979 5.7985 57.979ZM5.7985 55.4065C7.846 55.4065 9.064 56.026 9.064 57.1075C9.064 58.1995 7.846 58.8085 5.7985 58.8085C3.7615 58.8085 2.533 58.1995 2.533 57.1075C2.533 56.026 3.7615 55.4065 5.7985 55.4065ZM4.6435 52.9705V53.9365H6.9745V52.9705C6.628 53.023 6.2395 53.0545 5.8195 53.0545C5.3995 53.0545 4.99 53.023 4.6435 52.9705ZM5.8195 50.3245C4.402 50.3245 3.5515 50.6605 3.5515 51.2695C3.5515 51.8785 4.402 52.225 5.8195 52.225C7.2265 52.225 8.077 51.8785 8.077 51.2695C8.077 50.6605 7.2265 50.3245 5.8195 50.3245ZM8.056 53.9365H10.1035V54.7975H1.525V53.9365H3.562V52.6765C2.848 52.372 2.4385 51.889 2.4385 51.2695C2.4385 50.1565 3.7405 49.4845 5.8195 49.4845C7.888 49.4845 9.2005 50.1565 9.2005 51.2695C9.2005 51.889 8.7805 52.372 8.056 52.687V53.9365ZM13.3462 55.7425C14.1652 55.7425 14.7217 54.8605 14.7217 53.359C14.7217 51.889 14.1652 50.9965 13.3462 50.9965C12.5377 50.9965 11.9812 51.889 11.9812 53.359C11.9812 54.8605 12.5377 55.7425 13.3462 55.7425ZM17.5777 49.3165H18.6697V58.8295H17.5777V53.737H15.7402C15.6142 55.5745 14.6482 56.7085 13.3462 56.7085C11.9497 56.7085 10.9522 55.417 10.9522 53.359C10.9522 51.322 11.9497 50.02 13.3462 50.02C14.6167 50.02 15.5827 51.112 15.7297 52.855H17.5777V49.3165ZM23.3719 50.1145V51.6685C23.3719 53.359 24.2539 55.0705 25.6819 55.774L25.0204 56.635C24.0019 56.11 23.2459 55.081 22.8364 53.842C22.4269 55.1545 21.6289 56.257 20.5474 56.8135L19.8859 55.942C21.3664 55.2175 22.2904 53.422 22.2904 51.6685V50.1145H23.3719ZM28.8739 53.086V53.9785H27.3934V58.8085H26.3119V49.327H27.3934V53.086H28.8739ZM34.3635 51.868H36.0855V49.3375H37.167V56.2675H36.0855V52.7605H34.3635V51.868ZM34.9515 54.0835L34.416 54.9235C33.366 54.5665 32.5995 53.821 32.2005 52.8865C31.7805 53.9155 30.9825 54.745 29.859 55.1335L29.3025 54.283C30.7725 53.7685 31.6335 52.519 31.6335 51.238V50.9125H29.628V50.041H34.6995V50.9125H32.7255V51.238C32.7255 52.4035 33.534 53.59 34.9515 54.0835ZM32.106 57.748H37.4085V58.63H31.0245V55.669H32.106V57.748ZM43.5807 53.3905L42.5202 53.275C42.7092 52.2565 42.7407 51.511 42.7512 50.923H39.0447V50.041H43.8117V50.587C43.8117 51.2275 43.8117 52.162 43.5807 53.3905ZM44.3682 53.863L44.4417 54.6505C42.4677 54.997 40.2312 55.0495 38.5827 55.0495L38.4672 54.1675C39.0342 54.1675 39.6852 54.1675 40.3572 54.1465V52.204H41.4282V54.115C42.4152 54.073 43.4337 54.01 44.3682 53.863ZM40.9872 55.816V57.748H46.3422V58.63H39.8952V55.816H40.9872ZM46.0377 52.33H47.2977V53.2225H46.0377V56.446H44.9457V49.327H46.0377V52.33ZM49.4589 53.6845V55.6795C50.9604 55.669 52.2729 55.5955 53.7744 55.354L53.8899 56.236C52.2624 56.5195 50.8449 56.572 49.1754 56.572H48.3669V52.813H51.6744V51.049H48.3459V50.167H52.7664V53.6845H49.4589ZM54.5619 49.306H55.6539V58.8295H54.5619V49.306Z" fill="#3617CE"/>
<g clip-path="url(#clip0_1926_147359)">
<path d="M77.9199 1.67061C83.2798 -1.48933 89.9496 0.0301247 94.0996 4.6999L90.8096 9.27022L88.1699 7.40986C87.37 6.84996 86.35 6.52009 85.4102 6.19014C83.0102 5.35014 80.5395 6.63014 80.4795 8.19014C80.3995 10.06 82.9595 10.8506 84.6895 11.4206L87.7197 12.4099C88.3697 12.6199 89.1901 12.9397 89.8301 13.2497C93.0901 14.8097 94.5203 18.2706 94.3203 21.8806C94.1602 24.8503 92.1001 27.5906 89.3604 28.6706V28.6599C84.1604 30.7198 78.3998 29.5104 74.5098 25.5905C74.2699 25.3507 73.7608 24.9506 73.7402 24.6706C73.7102 24.3406 74.1702 23.8099 74.4102 23.4899L77.0596 19.8298C78.8596 21.6898 80.6902 22.85 82.9902 23.57C85.4101 24.3198 87.72 23.0001 87.96 21.9001C88.3199 20.1901 86.7997 18.9804 85.1797 18.4304L81.4697 17.1706C79.1098 16.3706 77.0099 15.2404 75.6299 13.1706C73.5299 10.0106 73.6401 4.19066 77.9199 1.67061Z" fill="#3617CE"/>
<path d="M27.8496 0.62959C29.2496 1.66959 29.0702 3.72037 29.4502 5.18037L30.5 9.19014L31.4502 13.2204L32.0596 15.4499L33.0195 19.4704L34.0596 23.7399L35.2002 27.9899C35.2602 28.2299 35.1195 28.8101 34.9795 28.9401C34.7993 29.0997 34.2898 28.9101 33.96 28.9001L29.0303 28.8005L28.3799 26.3503L27.5 22.4099L26.5 18.3005L26.5303 18.32L25.6201 14.7097C25.5798 14.5396 25.2498 14.1903 25.0898 14.1403C24.8898 14.0803 24.5095 14.4804 24.4395 14.6804L22.7295 19.4899L20.3896 25.8698C20.0096 26.8998 19.6095 28.4 18.7695 29.03L16.29 28.9704C15.2801 28.6904 14.8895 26.9606 14.5596 26.0505L13.54 23.2399L12.5596 20.4597L11.5498 17.7497C10.79 15.73 10.6997 14.4804 10.1299 14.1403C9.94993 14.0304 9.43058 14.4799 9.36035 14.7399L8.18945 19.2204L7.03027 24.1003C6.71031 25.4401 6.37991 26.6199 6.16992 27.9997C6.06993 28.6697 5.44998 28.8696 4.79004 28.8796L0.0800758 28.9802C-0.219911 28.1802 0.329738 27.2601 0.509763 26.4401L1.42969 22.3405L2.55957 17.6804L3.5 13.8698L4.54004 9.68037L5.47949 5.87959L6.37988 2.26045C6.50983 1.72066 6.87961 0.870727 7.22949 0.640332C8.48945 0.810327 9.54981 0.779897 10.7598 0.699902C11.9697 0.619905 12.4196 3.4 13.0195 5.07002L14.0195 7.82002L14.9102 10.1599L16.79 15.5104C16.9103 15.8403 17.4097 16.2996 17.6797 16.3698C18.0296 16.4598 18.5296 15.8904 18.5898 15.4704C18.7498 14.2304 19.1303 13.3199 19.5303 12.1999L20.4502 9.60029L21.5195 6.6501L22.5498 3.89033C22.9498 2.83033 23.2297 1.18959 24.2197 0.62959C25.3896 0.779579 26.8196 0.739571 27.8496 0.62959Z" fill="#3617CE"/>
<path d="M39.0195 0.749707L42.7803 0.810254C43.0504 0.810412 43.6304 0.980177 43.8203 1.1501C44.0399 1.34031 43.8597 1.98992 43.8496 2.36982L43.7803 10.4899C44.99 10.7297 45.3803 9.80972 45.9902 9.07979L49.1894 5.27998L53.0195 0.840527L58.96 0.749707L59.8096 0.680371C60.0496 0.660371 59.9699 1.50033 59.8799 1.64033C59.2299 2.29027 58.6794 2.80994 58.1494 3.4499L50.7998 12.3298L60.79 27.6003H60.8096C61.0896 28.0303 61.3895 28.57 61.1894 28.82C61.0093 29.0498 60.3696 28.9604 59.9697 28.9304C55.2399 28.5804 54.8497 29.7902 53.5098 27.7702L47.8496 19.2204C47.4196 18.5704 47.3299 17.9103 46.3799 18.1003C45.7999 18.2103 45.42 18.7405 45 19.3405C44.49 20.0704 43.8103 20.8502 43.8203 21.82L43.8701 27.2897C43.8701 27.5996 43.9496 28.0897 43.9297 28.3298C43.9097 28.5697 43.2805 28.8303 43.0303 28.8405L39.0498 28.9304L38.2295 28.9802C37.9996 28.9894 37.7402 28.3598 37.7402 28.07V1.4001C37.7402 1.21024 38.0494 0.640805 38.2295 0.659863L39.0195 0.749707Z" fill="#3617CE"/>
<path d="M65.25 0.760449L70.0596 0.860059V28.7702L65.0596 28.9304L64.2402 28.9606C64.0102 28.9606 63.75 28.33 63.75 28.07V1.60029C63.75 1.35029 64.0002 0.650606 64.2402 0.670606L65.25 0.760449Z" fill="#3617CE"/>
<path d="M70.0596 28.78V28.7702H70.0703L70.0596 28.78Z" fill="#3617CE"/>
</g>
<defs>
<clipPath id="clip0_1926_147359">
<rect width="94.33" height="29.65" fill="white"/>
</clipPath>
</defs>
</svg>
